<svg width="48" height="48" viewBox="0 0 48 48" fill="none" xmlns="http://www.w3.org/2000/svg">
<g clip-path="url(#clip0_53_5596)">
<path d="M47.3619 24C47.3619 10.7452 36.9363 0 24.0755 0C11.2147 0 0.789062 10.7452 0.789062 24C0.789062 35.9789 9.30453 45.908 20.437 47.7084V30.9375H14.5244V24H20.437V18.7125C20.437 12.6975 23.9136 9.375 29.2326 9.375C31.7796 9.375 34.4452 9.84375 34.4452 9.84375V15.75H31.509C28.6164 15.75 27.714 17.6002 27.714 19.5V24H34.1724L33.1399 30.9375H27.714V47.7084C38.8465 45.908 47.3619 35.9789 47.3619 24Z" fill="white"/>
</g>
<defs>
<clipPath id="clip0_53_5596">
<rect width="46.5729" height="48" fill="white" transform="translate(0.789062)"/>
</clipPath>
</defs>
</svg>
