<svg width="47" height="48" viewBox="0 0 47 48" fill="none" xmlns="http://www.w3.org/2000/svg">
<g clip-path="url(#clip0_53_5591)">
<path d="M23.2864 4.32187C29.5083 4.32187 30.2451 4.35 32.692 4.4625C34.966 4.56562 36.194 4.95938 37.0127 5.2875C38.0952 5.71875 38.8774 6.24375 39.687 7.07812C40.5057 7.92188 41.006 8.71875 41.4244 9.83438C41.7428 10.6781 42.1248 11.9531 42.2249 14.2875C42.334 16.8187 42.3613 17.5781 42.3613 23.9813C42.3613 30.3938 42.334 31.1531 42.2249 33.675C42.1248 36.0188 41.7428 37.2844 41.4244 38.1281C41.006 39.2438 40.4966 40.05 39.687 40.8844C38.8683 41.7281 38.0952 42.2438 37.0127 42.675C36.194 43.0031 34.957 43.3969 32.692 43.5C30.236 43.6125 29.4992 43.6406 23.2864 43.6406C17.0646 43.6406 16.3278 43.6125 13.8809 43.5C11.6068 43.3969 10.3788 43.0031 9.56018 42.675C8.47772 42.2438 7.69544 41.7188 6.88587 40.8844C6.06721 40.0406 5.56691 39.2438 5.14849 38.1281C4.83012 37.2844 4.44807 36.0094 4.34802 33.675C4.23886 31.1438 4.21157 30.3844 4.21157 23.9813C4.21157 17.5688 4.23886 16.8094 4.34802 14.2875C4.44807 11.9437 4.83012 10.6781 5.14849 9.83438C5.56691 8.71875 6.07631 7.9125 6.88587 7.07812C7.70454 6.23438 8.47772 5.71875 9.56018 5.2875C10.3788 4.95938 11.6159 4.56562 13.8809 4.4625C16.3278 4.35 17.0646 4.32187 23.2864 4.32187ZM23.2864 0C16.9645 0 16.1732 0.028125 13.6899 0.140625C11.2157 0.253125 9.51469 0.665625 8.0411 1.25625C6.50383 1.875 5.20306 2.69062 3.91139 4.03125C2.61063 5.3625 1.81925 6.70313 1.2189 8.27813C0.645835 9.80625 0.245599 11.55 0.136444 14.1C0.0272888 16.6687 0 17.4844 0 24C0 30.5156 0.0272888 31.3312 0.136444 33.8906C0.245599 36.4406 0.645835 38.1938 1.2189 39.7125C1.81925 41.2969 2.61063 42.6375 3.91139 43.9688C5.20306 45.3 6.50383 46.125 8.032 46.7344C9.51469 47.325 11.2066 47.7375 13.6808 47.85C16.1641 47.9625 16.9554 47.9906 23.2773 47.9906C29.5992 47.9906 30.3906 47.9625 32.8739 47.85C35.3481 47.7375 37.0491 47.325 38.5227 46.7344C40.0509 46.125 41.3516 45.3 42.6433 43.9688C43.935 42.6375 44.7354 41.2969 45.3267 39.7219C45.8998 38.1938 46.3 36.45 46.4091 33.9C46.5183 31.3406 46.5456 30.525 46.5456 24.0094C46.5456 17.4938 46.5183 16.6781 46.4091 14.1188C46.3 11.5688 45.8998 9.81563 45.3267 8.29688C44.7536 6.70312 43.9623 5.3625 42.6615 4.03125C41.3698 2.7 40.0691 1.875 38.5409 1.26562C37.0582 0.675 35.3663 0.2625 32.8921 0.15C30.3997 0.028125 29.6083 0 23.2864 0Z" fill="white"/>
<path d="M23.2865 11.6719C16.6827 11.6719 11.325 17.1938 11.325 24C11.325 30.8062 16.6827 36.3281 23.2865 36.3281C29.8904 36.3281 35.2481 30.8062 35.2481 24C35.2481 17.1938 29.8904 11.6719 23.2865 11.6719ZM23.2865 31.9969C19.0022 31.9969 15.5274 28.4156 15.5274 24C15.5274 19.5844 19.0022 16.0031 23.2865 16.0031C27.5709 16.0031 31.0457 19.5844 31.0457 24C31.0457 28.4156 27.5709 31.9969 23.2865 31.9969Z" fill="white"/>
<path d="M38.5136 11.1843C38.5136 12.778 37.2583 14.0624 35.721 14.0624C34.1747 14.0624 32.9285 12.7687 32.9285 11.1843C32.9285 9.59053 34.1838 8.30615 35.721 8.30615C37.2583 8.30615 38.5136 9.5999 38.5136 11.1843Z" fill="white"/>
</g>
<defs>
<clipPath id="clip0_53_5591">
<rect width="46.5729" height="48" fill="white"/>
</clipPath>
</defs>
</svg>
