<svg width="48" height="48" viewBox="0 0 48 48" fill="none" xmlns="http://www.w3.org/2000/svg">
<g clip-path="url(#clip0_53_5598)">
<path fill-rule="evenodd" clip-rule="evenodd" d="M47.1508 24C47.1508 37.2548 36.7251 48 23.8643 48C11.0036 48 0.577881 37.2548 0.577881 24C0.577881 10.7452 11.0036 0 23.8643 0C36.7251 0 47.1508 10.7452 47.1508 24ZM24.6988 17.7179C22.4339 18.6888 17.9071 20.6984 11.1187 23.7466C10.0163 24.1984 9.43887 24.6404 9.3863 25.0726C9.29746 25.803 10.1849 26.0906 11.3934 26.4822C11.5578 26.5355 11.7281 26.5907 11.9027 26.6492C13.0917 27.0475 14.6911 27.5135 15.5225 27.5321C16.2767 27.5489 17.1185 27.2284 18.0478 26.5707C24.3905 22.158 27.6646 19.9276 27.8702 19.8795C28.0152 19.8456 28.2162 19.803 28.3523 19.9277C28.4885 20.0524 28.4751 20.2886 28.4607 20.352C28.3728 20.7383 24.8891 24.0762 23.0864 25.8036C22.5244 26.3421 22.1257 26.724 22.0443 26.8113C21.8617 27.0067 21.6756 27.1915 21.4968 27.3692C20.3923 28.4667 19.5639 29.2896 21.5427 30.6336C22.4936 31.2794 23.2545 31.8135 24.0136 32.3463C24.8427 32.9281 25.6696 33.5085 26.7394 34.2313C27.012 34.4155 27.2723 34.6068 27.5259 34.793C28.4907 35.5019 29.3575 36.1388 30.4284 36.0373C31.0506 35.9782 31.6933 35.3752 32.0198 33.5767C32.7912 29.3263 34.3076 20.1169 34.658 16.3219C34.6887 15.9895 34.6501 15.5639 34.6191 15.3771C34.5881 15.1904 34.5232 14.9242 34.2877 14.7272C34.0087 14.4939 33.5779 14.4447 33.3853 14.4482C32.5095 14.4641 31.1657 14.9456 24.6988 17.7179Z" fill="white"/>
</g>
<defs>
<clipPath id="clip0_53_5598">
<rect width="46.5729" height="48" fill="white" transform="translate(0.577881)"/>
</clipPath>
</defs>
</svg>
